<svg width="155" height="62" viewBox="0 0 155 62" fill="none" xmlns="http://www.w3.org/2000/svg">
<g clip-path="url(#clip0_68_964)">
<mask id="mask0_68_964" style="mask-type:luminance" maskUnits="userSpaceOnUse" x="0" y="0" width="155" height="62">
<path d="M155 0H0V62H155V0Z" fill="white"/>
</mask>
<g mask="url(#mask0_68_964)">
<mask id="mask1_68_964" style="mask-type:luminance" maskUnits="userSpaceOnUse" x="0" y="0" width="155" height="62">
<path d="M155 0H0V62H155V0Z" fill="white"/>
</mask>
<g mask="url(#mask1_68_964)">
<path d="M0 42.8866C0 36.1549 3.65917 31.6357 9.36407 31.6357C14.2132 31.6357 16.3169 34.3401 16.3169 35.7237C16.3169 36.3683 15.8601 36.9838 15.0066 36.9838C13.2996 36.9838 13.4512 34.2165 9.42426 34.2165C5.39739 34.2165 2.80566 37.3836 2.80566 43.0079C2.80566 48.6322 5.33722 51.523 9.0588 51.523C11.1625 51.523 14.5186 50.355 14.5186 44.9755V42.8844H8.23648C7.5657 42.8844 7.2292 42.2397 7.2292 41.6243C7.2292 41.0088 7.5657 40.3957 8.23648 40.3957H15.6172C16.4418 40.3957 17.1125 41.0111 17.1125 41.932V53.0593C17.1125 53.7354 16.4418 54.1038 15.8312 54.1038C15.1915 54.1038 14.4896 53.7354 14.5498 52.9673V50.8761C13.1458 53.2727 10.7992 54.1038 8.60195 54.1038C3.53883 54.1038 0 49.7081 0 42.8844V42.8866Z" fill="#747373"/>
<path d="M21.6538 52.938V38.9828C21.6538 38.2439 22.1731 37.9069 22.8126 37.9069C23.4522 37.9069 23.9714 38.2461 23.9714 38.9828V40.7348C25.0077 38.7986 26.8684 37.8755 28.5465 37.8755C30.2245 37.8755 31.3522 38.7357 31.3522 39.9666C31.3522 40.8269 30.59 41.4109 29.7966 41.4109C29.0635 41.4109 28.6379 40.8876 27.5102 40.8876C26.1063 40.8876 24.2768 42.0555 24.2768 44.5465V52.938C24.2768 53.6141 23.6059 53.9533 22.9664 53.9533C22.3268 53.9533 21.6538 53.6141 21.6538 52.938Z" fill="#747373"/>
<path d="M33.4273 47.8651V38.9188C33.4273 38.2427 34.098 37.9035 34.8 37.9035C35.502 37.9035 36.1416 38.2427 36.1416 38.9188V47.4024C36.1416 50.6907 37.7884 51.6746 39.8008 51.6746C41.8131 51.6746 43.948 50.1067 43.948 46.9711V38.9165C43.948 38.2405 44.6499 37.8721 45.3207 37.8721C45.9915 37.8721 46.6623 38.2405 46.6623 38.9165V49.6441C46.6623 52.4719 48.1865 51.5196 48.1865 52.8111C48.1865 53.4557 47.7297 53.9476 46.7225 53.9476C45.3497 53.9476 44.5274 52.9324 44.3424 51.396C43.061 53.2109 40.9886 54.1318 39.0965 54.1318C36.3221 54.1318 33.4229 52.4719 33.4229 47.8606L33.4273 47.8651Z" fill="#747373"/>
<path d="M51.0257 59.5486V38.9516C51.0257 38.244 51.5449 37.9071 52.1845 37.9071C52.8241 37.9071 53.3433 38.2463 53.3433 38.9516V40.4879C54.3506 38.8595 56.0576 37.7207 58.6494 37.7207C62.859 37.7207 65.4195 41.4403 65.4195 45.836C65.4195 50.2316 62.7654 54.0748 58.5267 54.0748C55.964 54.0748 54.4999 52.9675 53.6464 51.923V59.5463C53.6464 60.346 52.9756 60.7458 52.336 60.7458C51.6965 60.7458 51.0234 60.346 51.0234 59.5463L51.0257 59.5486ZM58.1613 51.6175C61.0895 51.6175 62.6762 48.8503 62.6762 45.8988C62.6762 42.9475 61.0895 40.1802 58.1012 40.1802C54.5333 40.1802 53.5261 43.5 53.5261 45.8674C53.5261 48.2349 54.5623 51.6152 58.1613 51.6152V51.6175Z" fill="#747373"/>
<path d="M67.9824 45.9315C67.9824 41.4437 70.5452 37.7241 75.3631 37.7241C80.1811 37.7241 82.7127 41.4437 82.7127 45.9315C82.7127 50.4192 80.3326 54.1097 75.3631 54.1097C70.3936 54.1097 67.9824 50.4215 67.9824 45.9315ZM75.3631 51.6794C78.3827 51.6794 79.9694 49.0357 79.9694 45.9315C79.9694 42.8273 78.2914 40.1836 75.3631 40.1836C72.4349 40.1836 70.7279 42.7959 70.7279 45.9315C70.7279 49.0671 72.3146 51.6794 75.3631 51.6794Z" fill="#747373"/>
<path d="M118.736 37.8843C114.304 37.8843 110.745 41.3771 110.564 45.7278V60.2648C110.564 61.2239 111.34 61.9988 112.296 61.9988C113.181 61.9988 114.001 61.3474 114.014 60.2468V52.3404C115.16 53.2344 116.924 53.9465 118.663 53.9936C123.189 54.1216 126.948 50.4267 126.948 46.0086C126.948 41.5905 123.621 37.8821 118.736 37.8821M118.779 51.1814C115.919 51.1814 113.671 48.8993 113.671 46.058C113.671 43.2167 115.924 40.975 118.779 40.975C121.634 40.975 123.98 43.2571 123.98 46.058C123.98 48.8589 121.6 51.1814 118.779 51.1814Z" fill="#009A42"/>
<path d="M100.959 40.712C99.0916 40.7367 97.2489 41.8328 96.5178 43.3984C96.2973 43.87 96.5763 44.2834 97.0904 44.2834H104.808C105.323 44.2834 105.412 43.76 105.171 43.2973C104.406 41.8238 102.882 40.703 100.959 40.7142M96.3912 48.0524C96.8949 49.546 98.804 51.0869 100.895 51.0801C102.076 51.0756 103.255 50.8173 104.371 50.0401C106.142 48.8115 107.638 51.0397 106.294 52.1762C104.902 53.3173 102.746 54.0203 100.835 53.9979C96.3326 53.9462 93.0303 50.2895 93.0303 45.8916C93.0303 41.4936 96.4937 37.9986 100.85 37.8819C104.124 37.792 106.586 39.7709 107.727 41.7901C108.873 43.8274 109.192 46.9832 106.154 46.9944H96.9371C96.0726 46.9944 96.2396 47.6098 96.3886 48.0479" fill="#009A42"/>
<path d="M140.013 49.1027V45.327C140.013 43.2426 138.329 41.5512 136.248 41.5512C134.284 41.5512 132.477 43.1212 132.477 45.327V49.096C132.477 50.0798 131.674 50.8726 130.696 50.8726C129.718 50.8726 128.878 50.0775 128.92 49.096L128.938 45.5942C128.938 40.4011 132.766 37.8855 136.211 37.8855C138.592 37.8855 140.513 38.9749 141.741 40.5314C143.334 38.5616 145.534 37.8877 147.281 37.8877C151.606 37.8877 154.822 41.6163 154.989 45.9379C155.14 49.8147 153.585 56.2858 145.324 59.5269C144.076 59.8998 142.911 58.9385 143.018 57.7593C143.075 57.1124 143.401 56.3555 144.457 56.0522C151.27 54.1048 151.965 47.8426 151.649 45.6841C151.301 43.3189 149.906 41.5916 147.372 41.5534C145.175 41.5197 143.479 43.2223 143.477 45.3292V49.1072C143.488 50.1045 142.703 50.8748 141.741 50.8748C140.778 50.8748 139.971 50.1224 140.013 49.1049" fill="#7AD400"/>
<path d="M87.8176 42.4871C89.4735 42.4871 90.8151 43.8325 90.8151 45.4902C90.8151 47.1478 89.4718 48.4932 87.8176 48.4932C86.1643 48.4932 84.8184 47.1478 84.8184 45.4902C84.8184 43.8325 86.1626 42.4871 87.8176 42.4871Z" fill="#BEBDBD"/>
<path d="M0 25.3593V3.21692C0 2.37911 0.693058 1.78613 1.45297 1.78613H13.1815C13.977 1.78613 14.3916 2.55431 14.3916 3.25061C14.3916 3.94691 13.977 4.71509 13.1815 4.71509H3.07976V11.2019H12.6288C13.4244 11.2019 13.8389 11.9701 13.8389 12.6664C13.8389 13.3627 13.4244 14.1309 12.6288 14.1309H3.07976V25.3593C3.07976 26.1612 2.2842 26.579 1.55771 26.579C0.831224 26.579 0 26.1612 0 25.3593Z" fill="#747373"/>
<path d="M17.54 19.676V9.52796C17.54 8.75985 18.3022 8.37798 19.0978 8.37798C19.8934 8.37798 20.6198 8.76209 20.6198 9.52796V19.1527C20.6198 22.8835 22.4873 23.9998 24.7715 23.9998C27.0557 23.9998 29.4781 22.2209 29.4781 18.6653V9.52796C29.4781 8.75985 30.2736 8.34204 31.0358 8.34204C31.7979 8.34204 32.5578 8.75985 32.5578 9.52796V21.6975C32.5578 24.905 34.2871 23.8246 34.2871 25.2891C34.2871 26.0213 33.7679 26.5784 32.6269 26.5784C31.0692 26.5784 30.1355 25.4284 29.9282 23.6832C28.4753 25.7406 26.122 26.7873 23.9781 26.7873C20.8293 26.7873 17.5423 24.905 17.5423 19.6737L17.54 19.676Z" fill="#747373"/>
<path d="M49.5103 25.4285V15.8375C49.5103 12.0708 47.5737 10.9208 45.392 10.9208C42.7625 10.9208 40.4783 12.6997 40.4783 16.2912V25.4285C40.4783 26.1967 39.7517 26.5785 38.9896 26.5785C38.2275 26.5785 37.501 26.1945 37.501 25.4285V9.6315C37.501 8.79364 38.0536 8.37588 38.8158 8.37588C39.5779 8.37588 40.1306 8.79364 40.1306 9.6315V11.2015C41.4788 9.18002 43.6605 8.16699 45.9424 8.16699C48.9531 8.16699 52.4809 9.90998 52.4809 15.1412V25.4285C52.4809 26.1967 51.7543 26.5785 50.9923 26.5785C50.2301 26.5785 49.5036 26.1945 49.5036 25.4285H49.5103Z" fill="#747373"/>
<path d="M56.1528 17.6196C56.1528 12.1099 59.266 8.23981 63.9726 8.23981C66.9141 8.23981 68.5387 9.42581 69.5081 10.6117V2.76374C69.5081 1.85631 70.2346 1.40259 70.9967 1.40259C71.7588 1.40259 72.4854 1.85631 72.4854 2.76374V21.7346C72.4854 24.978 74.1812 23.8616 74.1812 25.2925C74.1812 26.1302 73.5929 26.6176 72.6236 26.6176C70.8585 26.6176 70.0986 25.1869 69.8201 23.7921C68.6434 25.6743 66.6712 26.7906 63.801 26.7906C58.9919 26.7906 56.1551 22.5365 56.1551 17.6196H56.1528ZM64.387 24.0009C68.4362 24.0009 69.5772 20.2701 69.5772 17.55C69.5772 14.83 68.4006 10.9935 64.318 10.9935C61.4811 10.9935 59.266 13.7833 59.266 17.55C59.266 21.3168 61.4455 24.0009 64.387 24.0009Z" fill="#747373"/>
<path d="M76.0804 21.2799C76.0804 17.6524 79.2292 15.8039 82.5496 15.8039C84.2099 15.8039 85.8701 16.2576 87.2893 17.1987V14.966C87.2893 11.5474 85.284 10.8848 83.7263 10.8848C80.8538 10.8848 80.6131 13.0479 78.8481 13.0479C77.9144 13.0479 77.2905 12.4548 77.2905 11.5137C77.2905 9.52593 80.3011 8.16699 83.4834 8.16699C86.8398 8.16699 90.2291 9.73707 90.2291 14.409V21.7314C90.2291 24.9389 91.9582 23.964 91.9582 25.3229C91.9582 26.1608 91.3012 26.6123 90.3316 26.6123C88.6714 26.6123 87.9782 25.4959 87.7379 24.2403C86.2844 25.8441 84.3124 26.6459 82.202 26.6459C79.0888 26.6459 76.0781 24.903 76.0781 21.2754L76.0804 21.2799ZM83.1402 24.0696C85.2172 24.0696 87.2919 23.0588 87.2919 21.1407C87.2919 19.2225 85.2149 18.2814 83.0355 18.2814C80.856 18.2814 79.1958 19.2584 79.1958 21.1407C79.1958 23.1285 81.0989 24.0696 83.1402 24.0696Z" fill="#747373"/>
<path d="M93.9688 17.5132C93.9688 12.8412 96.3911 8.16699 102.272 8.16699C106.804 8.16699 109.297 11.0622 109.297 12.5964C109.297 13.2589 108.777 13.9576 107.877 13.9576C105.905 13.9576 106.181 10.9589 102.305 10.9589C98.4302 10.9589 97.0128 14.0968 97.0128 17.5154C97.0128 20.934 98.4327 24.0022 102.305 24.0022C106.178 24.0022 105.905 20.9677 107.877 20.9677C108.777 20.9677 109.297 21.7 109.297 22.3625C109.297 23.8967 106.804 26.7919 102.272 26.7919C96.3911 26.7919 93.9688 22.1199 93.9688 17.5154V17.5132Z" fill="#747373"/>
<path d="M114.453 1.43628C115.663 1.43628 116.599 2.37741 116.599 3.5993C116.599 4.8212 115.665 5.76233 114.453 5.76233C113.241 5.76233 112.307 4.8212 112.307 3.5993C112.307 2.37741 113.241 1.43628 114.453 1.43628ZM112.964 25.4272V9.63021C112.964 8.79235 113.691 8.37458 114.453 8.37458C115.215 8.37458 115.942 8.79235 115.942 9.63021V25.4272C115.942 26.1954 115.215 26.5772 114.488 26.5772C113.762 26.5772 112.967 26.1932 112.967 25.4272H112.964Z" fill="#747373"/>
<path d="M119.571 17.4793C119.571 12.3873 122.478 8.16902 127.944 8.16902C133.41 8.16902 136.283 12.3895 136.283 17.4793C136.283 22.5689 133.584 26.7558 127.944 26.7558C122.304 26.7558 119.571 22.5712 119.571 17.4793ZM127.944 23.9998C131.369 23.9998 133.167 21.0012 133.167 17.4793C133.167 13.9573 131.264 10.9588 127.944 10.9588C124.623 10.9588 122.685 13.9237 122.685 17.4793C122.685 21.0349 124.483 23.9998 127.944 23.9998ZM128.811 0.321031C129.261 -0.202318 129.987 -0.0271192 130.438 0.4266C130.888 0.880314 131.096 1.57662 130.612 2.09997L127.222 5.65784C126.772 6.11156 126.081 5.93636 125.631 5.51859C125.217 5.1008 125.009 4.40226 125.423 3.91484L128.814 0.323278L128.811 0.321031Z" fill="#747373"/>
<path d="M152.025 25.4285V15.8375C152.025 12.0708 150.088 10.9208 147.906 10.9208C145.277 10.9208 142.992 12.6997 142.992 16.2912V25.4285C142.992 26.1967 142.266 26.5785 141.504 26.5785C140.742 26.5785 140.016 26.1945 140.016 25.4285V9.6315C140.016 8.79364 140.568 8.37588 141.331 8.37588C142.093 8.37588 142.645 8.79364 142.645 9.6315V11.2015C143.996 9.18002 146.175 8.16699 148.457 8.16699C151.468 8.16699 154.996 9.90998 154.996 15.1412V25.4285C154.996 26.1967 154.269 26.5785 153.507 26.5785C152.745 26.5785 152.018 26.1945 152.018 25.4285H152.025Z" fill="#747373"/>
</g>
</g>
</g>
<defs>
<clipPath id="clip0_68_964">
<rect width="155" height="62" fill="white"/>
</clipPath>
</defs>
</svg>
